<?xml version="1.0" encoding="UTF-8"?>
<svg width="1200" height="1000" viewBox="0 0 1200 1000" xmlns="http://www.w3.org/2000/svg">
    <defs>
        <!-- Gradients -->
        <linearGradient id="primaryGrad" x1="0%" y1="0%" x2="100%" y2="0%">
            <stop offset="0%" style="stop-color:#9333EA;stop-opacity:1" />
            <stop offset="100%" style="stop-color:#A855F7;stop-opacity:1" />
        </linearGradient>
        
        <!-- Glass Effect -->
        <filter id="glassEffect">
            <feGaussianBlur in="SourceGraphic" stdDeviation="10" />
            <feColorMatrix type="matrix" values="1 0 0 0 0 0 1 0 0 0 0 0 1 0 0 0 0 0 19 -9" />
        </filter>

        <!-- Draggable Indicator -->
        <g id="dragHandle">
            <circle cx="0" cy="0" r="3" fill="#666"/>
            <circle cx="0" cy="8" r="3" fill="#666"/>
            <circle cx="0" cy="16" r="3" fill="#666"/>
        </g>
    </defs>

    <!-- Background -->
    <rect width="1200" height="1000" fill="#F9FAFB"/>

    <!-- Header -->
    <rect x="0" y="0" width="1200" height="80" fill="url(#primaryGrad)"/>
    <text x="40" y="45" fill="white" font-size="24" font-weight="bold">Team Collaboration Hub</text>

    <!-- Key Metrics -->
    <g transform="translate(40, 100)">
        <!-- Active Pairs -->
        <g transform="translate(0, 0)">
            <text x="0" y="0" fill="#1A1A1A" font-size="36" font-weight="bold">3</text>
            <text x="0" y="25" fill="#666" font-size="14">Active Pairs</text>
        </g>
        
        <!-- Tasks In Progress -->
        <g transform="translate(150, 0)">
            <text x="0" y="0" fill="#1A1A1A" font-size="36" font-weight="bold">5</text>
            <text x="0" y="25" fill="#666" font-size="14">In Progress</text>
        </g>

        <!-- Team Velocity -->
        <g transform="translate(300, 0)">
            <text x="0" y="0" fill="#1A1A1A" font-size="36" font-weight="bold">24</text>
            <text x="0" y="25" fill="#666" font-size="14">pts/week</text>
        </g>
    </g>

    <!-- Sidebar -->
    <g transform="translate(40, 180)">
        <rect width="250" height="780" fill="white" stroke="#E2E8F0" rx="10"/>
        <text x="20" y="40" fill="#1A1A1A" font-size="16" font-weight="bold">Available Team</text>

        <!-- Developers Section -->
        <g transform="translate(20, 60)">
            <text x="0" y="20" fill="#666" font-size="14">Developers</text>
            
            <!-- Draggable Developer Items -->
            <g transform="translate(0, 40)">
                <rect width="210" height="40" fill="#F3E5F5" rx="5"/>
                <use href="#dragHandle" transform="translate(20, 12)"/>
                <text x="40" y="25" fill="#1A1A1A" font-size="14">James Thompson</text>
            </g>

            <g transform="translate(0, 50)">
                <rect width="210" height="40" fill="#F3E5F5" rx="5"/>
                <use href="#dragHandle" transform="translate(20, 12)"/>
                <text x="40" y="25" fill="#1A1A1A" font-size="14">Terrell Washington</text>
            </g>

            <!-- More developers... -->
        </g>

        <!-- Support Roles Section -->
        <g transform="translate(20, 300)">
            <text x="0" y="20" fill="#666" font-size="14">Support Roles</text>
            
            <!-- Draggable Support Items -->
            <g transform="translate(0, 40)">
                <rect width="210" height="40" fill="#E8EAF6" rx="5"/>
                <use href="#dragHandle" transform="translate(20, 12)"/>
                <text x="40" y="25" fill="#1A1A1A" font-size="14">Brian (PM)</text>
            </g>

            <g transform="translate(0, 50)">
                <rect width="210" height="40" fill="#E8EAF6" rx="5"/>
                <use href="#dragHandle" transform="translate(20, 12)"/>
                <text x="40" y="25" fill="#1A1A1A" font-size="14">Josh (Design)</text>
            </g>
        </g>
    </g>

    <!-- Main Workspace -->
    <g transform="translate(320, 180)">
        <!-- Pure Pair Programming Desk -->
        <g transform="translate(0, 0)">
            <!-- Desk -->
            <rect width="300" height="150" fill="#E2E8F0" rx="10"/>
            
            <!-- Developer Seats -->
            <circle cx="75" cy="120" r="20" fill="#9333EA"/>
            <text x="75" y="125" text-anchor="middle" fill="white" font-size="12">JT</text>
            
            <circle cx="225" cy="120" r="20" fill="#9333EA"/>
            <text x="225" y="125" text-anchor="middle" fill="white" font-size="12">TW</text>

            <!-- Task Card -->
            <g transform="translate(50, 20)">
                <rect width="200" height="60" fill="white" stroke="#22C55E" rx="5"/>
                <text x="20" y="25" fill="#1A1A1A" font-size="14">API Integration</text>
                <text x="20" y="45" fill="#666" font-size="12">In Progress</text>
                <!-- Enabled Dropdown -->
                <path d="M 180 30 l 5 5 l 5 -5" stroke="#666" fill="none"/>
            </g>
        </g>

        <!-- Mob Programming Desk -->
        <g transform="translate(350, 0)">
            <!-- Desk -->
            <rect width="300" height="150" fill="#E2E8F0" rx="10"/>
            
            <!-- Developer Seats -->
            <circle cx="75" cy="120" r="20" fill="#9333EA"/>
            <text x="75" y="125" text-anchor="middle" fill="white" font-size="12">MC</text>
            
            <circle cx="225" cy="120" r="20" fill="#9333EA"/>
            <text x="225" y="125" text-anchor="middle" fill="white" font-size="12">SM</text>

            <!-- Support Seat -->
            <circle cx="150" cy="120" r="20" fill="#3B82F6"/>
            <text x="150" y="125" text-anchor="middle" fill="white" font-size="12">BP</text>

            <!-- Spectator Indicators -->
            <circle cx="280" cy="20" r="5" fill="#666"/>
            <circle cx="280" cy="35" r="5" fill="#666"/>
            <text x="290" y="30" fill="#666" font-size="12">2</text>

            <!-- Task Card -->
            <g transform="translate(50, 20)">
                <rect width="200" height="60" fill="white" stroke="#EAB308" rx="5"/>
                <text x="20" y="25" fill="#1A1A1A" font-size="14">Database Migration</text>
                <text x="20" y="45" fill="#666" font-size="12">Code Review</text>
                <!-- Disabled Dropdown -->
                <path d="M 180 30 l 5 5 l 5 -5" stroke="#E2E8F0" fill="none"/>
            </g>
        </g>

        <!-- Support Task Desk -->
        <g transform="translate(0, 200)">
            <!-- Desk -->
            <rect width="300" height="150" fill="#E2E8F0" rx="10"/>
            
            <!-- Support Seat -->
            <circle cx="150" cy="120" r="20" fill="#3B82F6"/>
            <text x="150" y="125" text-anchor="middle" fill="white" font-size="12">JD</text>

            <!-- Task Card -->
            <g transform="translate(50, 20)">
                <rect width="200" height="60" fill="white" stroke="#9333EA" rx="5"/>
                <text x="20" y="25" fill="#1A1A1A" font-size="14">UI Components</text>
                <text x="20" y="45" fill="#666" font-size="12">Design Review</text>
                <!-- Enabled Dropdown -->
                <path d="M 180 30 l 5 5 l 5 -5" stroke="#666" fill="none"/>
            </g>
        </g>
    </g>

    <!-- Legend -->
    <g transform="translate(320, 920)">
        <circle cx="20" cy="15" r="8" fill="#9333EA"/>
        <text x="40" y="20" fill="#666" font-size="14">Developer</text>
        
        <circle cx="150" cy="15" r="8" fill="#3B82F6"/>
        <text x="170" y="20" fill="#666" font-size="14">Support Role</text>
        
        <circle cx="280" cy="15" r="8" fill="#666"/>
        <text x="300" y="20" fill="#666" font-size="14">Spectator</text>

        <rect x="400" y="5" width="20" height="20" fill="white" stroke="#666" rx="3"/>
        <path d="M 410 12 l 5 5 l 5 -5" stroke="#666" fill="none"/>
        <text x="430" y="20" fill="#666" font-size="14">Task Changeable</text>
    </g>
</svg>