<?xml version="1.0" encoding="UTF-8"?>
<svg width="1200" height="1000" xmlns="http://www.w3.org/2000/svg">
    <defs>
        <!-- Gradients -->
        <linearGradient id="devTeamGrad" x1="0%" y1="0%" x2="100%" y2="0%">
            <stop offset="0%" style="stop-color:#4CAF50;stop-opacity:1" />
            <stop offset="100%" style="stop-color:#45D1A1;stop-opacity:1" />
        </linearGradient>
        <!-- Connector styles -->
        <marker id="arrowhead" markerWidth="10" markerHeight="7" 
                refX="9" refY="3.5" orient="auto">
            <polygon points="0 0, 10 3.5, 0 7" fill="#4CAF50"/>
        </marker>
    </defs>

    <!-- Main Dev Team Header -->
    <rect x="300" y="20" width="600" height="80" fill="url(#devTeamGrad)" rx="10"/>
    <text x="600" y="65" text-anchor="middle" fill="white" font-size="24">AI-Powered Development Team</text>
    <text x="600" y="85" text-anchor="middle" fill="white" font-size="14">Full-Stack Development Automation Suite</text>

    <!-- Frontend Development Section -->
    <g transform="translate(50, 150)">
        <rect x="50" y="0" width="300" height="200" fill="#E8F5E9" rx="5" stroke="#4CAF50"/>
        <text x="200" y="30" text-anchor="middle" font-weight="bold" fill="#2E7D32">Frontend Development</text>
        
        <!-- Frontend Tools -->
        <g transform="translate(70, 50)">
            <text x="0" y="0" font-size="14" font-weight="bold">Primary AI Tools:</text>
            <text x="20" y="25" font-size="12">• GitHub Copilot (React/TypeScript)</text>
            <text x="20" y="45" font-size="12">• Tabnine (Component Generation)</text>
            <text x="20" y="65" font-size="12">• GPT-4 (UI/UX Suggestions)</text>
            <text x="20" y="85" font-size="12">• V0.dev (Component Design)</text>
            <text x="20" y="105" font-size="12">• Figma AI (Layout Generation)</text>
            <text x="20" y="125" font-size="12">• CSS-AI (Styling Optimization)</text>
        </g>
    </g>

    <!-- Backend Development Section -->
    <g transform="translate(400, 150)">
        <rect x="50" y="0" width="300" height="200" fill="#E8F5E9" rx="5" stroke="#4CAF50"/>
        <text x="200" y="30" text-anchor="middle" font-weight="bold" fill="#2E7D32">Backend Development</text>
        
        <!-- Backend Tools -->
        <g transform="translate(70, 50)">
            <text x="0" y="0" font-size="14" font-weight="bold">Primary AI Tools:</text>
            <text x="20" y="25" font-size="12">• Amazon CodeWhisperer (API)</text>
            <text x="20" y="45" font-size="12">• GPT-4 (Database Schema)</text>
            <text x="20" y="65" font-size="12">• Claude (Security Analysis)</text>
            <text x="20" y="85" font-size="12">• AI-CLI (Command Line Tools)</text>
            <text x="20" y="105" font-size="12">• DB-GPT (Query Optimization)</text>
            <text x="20" y="125" font-size="12">• Secure-AI (Auth Logic)</text>
        </g>
    </g>

    <!-- Testing & QA Section -->
    <g transform="translate(700, 150)">
        <rect x="50" y="0" width="300" height="200" fill="#E8F5E9" rx="5" stroke="#4CAF50"/>
        <text x="200" y="30" text-anchor="middle" font-weight="bold" fill="#2E7D32">Testing & QA</text>
        
        <!-- Testing Tools -->
        <g transform="translate(70, 50)">
            <text x="0" y="0" font-size="14" font-weight="bold">Primary AI Tools:</text>
            <text x="20" y="25" font-size="12">• TestIM AI (E2E Testing)</text>
            <text x="20" y="45" font-size="12">• Jest-AI (Unit Tests)</text>
            <text x="20" y="65" font-size="12">• Cypress AI (Integration)</text>
            <text x="20" y="85" font-size="12">• Bug Predictor AI</text>
            <text x="20" y="105" font-size="12">• Performance AI Monitor</text>
            <text x="20" y="125" font-size="12">• Security Scanner AI</text>
        </g>
    </g>

    <!-- Automation Workflows -->
    <g transform="translate(50, 400)">
        <rect x="50" y="0" width="1000" height="180" fill="#F1F8E9" rx="5" stroke="#8BC34A"/>
        <text x="550" y="30" text-anchor="middle" font-weight="bold" fill="#558B2F">Development Workflows</text>
        
        <!-- Workflow Steps -->
        <g transform="translate(70, 50)">
            <text x="0" y="0" font-size="14" font-weight="bold">Automated Process Flow:</text>
            <text x="20" y="25" font-size="12">1. Code Generation → Review → Optimization (Copilot + CodeWhisperer)</text>
            <text x="20" y="45" font-size="12">2. Testing Suite Generation → Execution → Reports (TestIM + Jest-AI)</text>
            <text x="20" y="65" font-size="12">3. Security Scanning → Vulnerability Fixes → Validation (Secure-AI)</text>
            <text x="20" y="85" font-size="12">4. Performance Analysis → Optimization → Monitoring (Performance AI)</text>
            <text x="20" y="105" font-size="12">5. Documentation Generation → API Docs → Readme Updates (GPT-4)</text>
        </g>
    </g>

    <!-- Integration Platform -->
    <g transform="translate(50, 630)">
        <rect x="50" y="0" width="1000" height="250" fill="#FAFAFA" rx="5" stroke="#9E9E9E"/>
        <text x="550" y="30" text-anchor="middle" font-weight="bold">Development Stack Integration</text>

        <!-- Stack Components -->
        <g transform="translate(70, 50)">
            <rect x="0" y="0" width="200" height="160" fill="white" stroke="#9E9E9E" rx="5"/>
            <text x="100" y="25" text-anchor="middle" font-size="14" font-weight="bold">Version Control</text>
            <text x="100" y="50" text-anchor="middle" font-size="12">GitHub + Copilot</text>
            <text x="100" y="70" text-anchor="middle" font-size="12">GitLens AI</text>
            <text x="100" y="90" text-anchor="middle" font-size="12">Commit Message AI</text>

            <rect x="250" y="0" width="200" height="160" fill="white" stroke="#9E9E9E" rx="5"/>
            <text x="350" y="25" text-anchor="middle" font-size="14" font-weight="bold">CI/CD</text>
            <text x="350" y="50" text-anchor="middle" font-size="12">GitHub Actions</text>
            <text x="350" y="70" text-anchor="middle" font-size="12">Jenkins AI</text>
            <text x="350" y="90" text-anchor="middle" font-size="12">Deploy Predictor</text>

            <rect x="500" y="0" width="200" height="160" fill="white" stroke="#9E9E9E" rx="5"/>
            <text x="600" y="25" text-anchor="middle" font-size="14" font-weight="bold">Code Quality</text>
            <text x="600" y="50" text-anchor="middle" font-size="12">SonarQube AI</text>
            <text x="600" y="70" text-anchor="middle" font-size="12">DeepCode AI</text>
            <text x="600" y="90" text-anchor="middle" font-size="12">CodeClimate</text>

            <rect x="750" y="0" width="200" height="160" fill="white" stroke="#9E9E9E" rx="5"/>
            <text x="850" y="25" text-anchor="middle" font-size="14" font-weight="bold">Monitoring</text>
            <text x="850" y="50" text-anchor="middle" font-size="12">DataDog AI</text>
            <text x="850" y="70" text-anchor="middle" font-size="12">New Relic AI</text>
            <text x="850" y="90" text-anchor="middle" font-size="12">Grafana AI</text>
        </g>
    </g>
</svg>
