<svg viewBox="0 0 24 24" xmlns="http://www.w3.org/2000/svg">
  <path d="M12 1.75a1.25 1.25 0 0 1 1.25 1.25v.69a8.25 8.25 0 0 1 3.5 1.45l.49-.49a1.25 1.25 0 1 1 1.77 1.77l-.49.49a8.25 8.25 0 0 1 1.45 3.5h.69a1.25 1.25 0 1 1 0 2.5h-.69a8.25 8.25 0 0 1-1.45 3.5l.49.49a1.25 1.25 0 1 1-1.77 1.77l-.49-.49a8.25 8.25 0 0 1-3.5 1.45v.69a1.25 1.25 0 1 1-2.5 0v-.69a8.25 8.25 0 0 1-3.5-1.45l-.49.49a1.25 1.25 0 1 1-1.77-1.77l.49-.49a8.25 8.25 0 0 1-1.45-3.5h-.69a1.25 1.25 0 1 1 0-2.5h.69a8.25 8.25 0 0 1 1.45-3.5l-.49-.49a1.25 1.25 0 1 1 1.77-1.77l.49.49a8.25 8.25 0 0 1 3.5-1.45v-.69A1.25 1.25 0 0 1 12 1.75zm0 4.5a6.75 6.75 0 1 0 0 13.5 6.75 6.75 0 0 0 0-13.5z"/>
</svg>
